Coordinates
version=1
nRows=17
nColumns=36
inDegrees=yes

Units are S.I. units (second, meters, Newtons, ...)
If the header above contains a line with 'inDegrees', this indicates whether rotational values are in degrees (yes) or radians (no).

endheader
time	pelvis_tilt	pelvis_list	pelvis_rotation	pelvis_tx	pelvis_ty	pelvis_tz	hip_flexion_r	hip_adduction_r	hip_rotation_r	knee_angle_r	knee_angle_r_beta	ankle_angle_r	subtalar_angle_r	mtp_angle_r	hip_flexion_l	hip_adduction_l	hip_rotation_l	knee_angle_l	knee_angle_l_beta	ankle_angle_l	subtalar_angle_l	mtp_angle_l	lumbar_extension	lumbar_bending	lumbar_rotation	arm_flex_r	arm_add_r	arm_rot_r	elbow_flex_r	pro_sup_r	arm_flex_l	arm_add_l	arm_rot_l	elbow_flex_l	pro_sup_l
      4.27083330	    -11.15877716	     -0.23980217	      3.92826626	      0.46010856	      1.37705989	     -0.00511061	     10.44711056	     -5.65336828	    -28.98874474	      1.05872164	      0.01847818	    -45.30884852	     -3.25455389	     -7.49999987	     13.74880937	     -8.26776852	    -30.06064759	      2.52315361	      0.04403734	    -36.96635452	     -4.64840483	     -7.49999987	     -3.64192417	     -0.57590222	     -0.70607045	    337.42043526	    -17.48688482	    364.41539288	     53.56506236	     74.69252421	   -217.76643567	   -143.86055452	   -191.07753463	     97.71970581	     78.77992772
      4.27500000	    -11.02370841	     -0.28118517	      3.89277788	      0.46046480	      1.36850653	     -0.00335555	     10.45432329	     -5.60686608	    -29.01267579	      1.24739332	      0.02177112	    -45.27988716	     -3.74932887	     -7.49999987	     13.67264678	     -8.46139433	    -29.75066107	      2.60558938	      0.04547611	    -37.23264904	     -5.12864901	     -7.49999987	     -3.73259414	     -0.61261731	     -0.68146319	    337.63132940	    -17.56541079	    364.94604822	     53.29220160	     73.24661583	   -217.52955987	   -144.04459031	   -190.74604279	     97.59737607	     79.47820233
      4.27916670	    -11.00969588	     -0.34910170	      3.98655274	      0.46164338	      1.36210691	     -0.00199786	     10.46724981	     -5.50682430	    -29.17678607	      1.29319432	      0.02257050	    -45.22476310	     -3.83168332	     -7.49999987	     13.68301909	     -8.63895882	    -29.66851083	      2.60417718	      0.04545147	    -37.48596262	     -5.44833785	     -7.49999987	     -3.66667979	     -0.50472602	     -0.39592629	    337.56606951	    -17.41693972	    364.78918822	     53.06221050	     73.96210925	   -216.70646012	   -143.99433709	   -189.67716991	     97.00816668	     78.97446880
      4.28333330	    -11.03358536	     -0.33200495	      3.96055049	      0.46059510	      1.35696125	     -0.00620529	     10.50383438	     -5.65869266	    -29.63326276	      1.33629954	      0.02332283	    -44.85902451	     -3.42610863	     -7.49999987	     13.68677821	     -8.53414374	    -29.57247116	      2.72685705	      0.04759263	    -37.26456455	     -5.57192802	     -7.49999987	     -3.56229528	     -0.34837059	      0.05037331	    337.48259745	    -17.32828625	    364.67306591	     52.94135477	     73.61564906	   -215.46094598	   -143.95782951	   -188.12949719	     96.12967849	     78.75583243
      4.28750000	    -10.89202033	     -0.24629400	      3.81007255	      0.46060904	      1.34653302	     -0.00180572	     10.37501865	     -5.56938723	    -29.74564610	      1.36923435	      0.02389765	    -44.44532262	     -3.72520743	     -7.49999987	     13.49095789	     -8.56517561	    -29.63613599	      2.92822408	      0.05110715	    -36.98035220	     -5.66392525	     -7.49999987	     -3.66772230	     -0.40413180	      0.77408633	    337.03969387	    -16.92681480	    363.98232294	     53.25913078	     71.97400668	   -214.39858966	   -143.66227208	   -186.53464012	     95.65911620	     76.66672871
      4.29166670	    -10.87579317	     -0.52478757	      4.01090806	      0.45978491	      1.34477972	     -0.00071823	     10.27034763	     -5.18990470	    -30.24758935	      1.45085484	      0.02532219	    -43.55335968	     -3.16493615	     -7.49999987	     13.60593057	     -8.91205948	    -29.51653642	      3.14265920	      0.05484975	    -36.63105190	     -5.42499732	     -7.49999987	     -3.60483133	     -0.30301956	      0.58177105	    337.50794637	    -16.90214408	    365.04744049	     52.60366658	     71.98373400	   -214.12314108	   -144.26955239	   -186.31500473	     95.28117014	     77.23933675
      4.29583330	    -10.34876870	     -0.83884685	      4.28484182	      0.45775772	      1.33161210	     -0.00342374	      9.81833296	     -4.88572161	    -29.79243205	      1.73608050	      0.03030032	    -43.05831814	     -3.48525701	     -7.49999987	     13.28409386	     -9.32212475	    -29.00453776	      3.29944872	      0.05758624	    -36.60426968	     -5.70283197	     -7.49999987	     -4.10271825	      0.21014854	      1.18375653	    337.00820378	    -16.65637503	    364.26667376	     52.87933307	     70.71852091	   -212.50182435	   -144.10990459	   -184.41331627	     94.77071952	     75.85592192
      4.30000000	    -10.13541719	     -0.97984388	      4.50208588	      0.45619186	      1.32504146	     -0.00103257	      9.64930086	     -4.74875069	    -29.11335519	      1.89253019	      0.03303088	    -42.28732514	     -3.68252258	     -7.49999987	     13.27280118	     -9.55347331	    -28.29856706	      3.49400777	      0.06098194	    -36.55253200	     -5.99447061	     -7.49999987	     -4.41732876	      0.28291681	      1.10757020	    337.14655764	    -16.45928006	    364.26364603	     52.80282460	     72.44908352	   -212.08892050	   -144.38935944	   -184.15993886	     94.47221050	     77.90180086
      4.30416670	     -9.78524655	     -0.92524064	      4.40531006	      0.45622453	      1.31136949	      0.00131401	      9.35031937	     -4.64059696	    -28.31041841	      2.07741306	      0.03625770	    -41.88405370	     -4.16595637	     -7.49999987	     12.97365305	     -9.80145780	    -27.61382737	      3.66582136	      0.06398065	    -36.35588166	     -5.67844440	     -7.49999987	     -4.66511969	      0.11792411	      1.53922510	    336.88589758	    -15.96111717	    363.44443168	     53.11693272	     71.39162630	   -211.37099563	   -144.17622493	   -183.16242352	     94.31484639	     76.59679015
      4.30833330	     -9.75661633	     -0.97607892	      4.28594982	      0.45297769	      1.30568104	      0.00330450	      9.45645625	     -4.44782588	    -27.87237218	      2.19609615	      0.03832911	    -41.08770050	     -4.11610996	     -7.49999987	     13.03625570	    -10.11097431	    -26.99680356	      3.73714813	      0.06522554	    -35.96655205	     -5.00158298	     -7.49999987	     -4.66801854	     -0.05146967	      0.98556858	    337.61408569	    -16.01223297	    364.27458175	     52.85808458	     72.57511661	   -212.12819338	   -144.93358423	   -184.25762698	     94.52624646	     80.54073111
      4.31250000	     -9.65165184	     -1.03819914	      4.06067471	      0.45234209	      1.29650297	      0.00181028	      9.51229772	     -4.32065179	    -27.18480854	      2.43602196	      0.04251660	    -40.61913436	     -4.05210280	     -7.49999987	     12.99417073	    -10.36041765	    -26.30256884	      3.86462556	      0.06745044	    -35.63160386	     -4.57371102	     -7.49999987	     -4.87208495	     -0.03131951	      1.35682176	    337.64357826	    -15.74645569	    363.72845874	     53.13932572	     71.47801755	   -211.69523216	   -145.02377531	   -183.34465843	     94.49973525	     78.69358729
      4.31666670	     -9.57903129	     -1.04212677	      3.84373345	      0.45269335	      1.28711955	      0.00188439	      9.53687210	     -4.26265049	    -27.30952379	      2.49799883	      0.04359830	    -40.04158128	     -4.03940425	     -7.49999987	     12.88927083	    -10.49330249	    -25.99271794	      4.00290220	      0.06986382	    -35.38727389	     -4.26881113	     -7.49999987	     -5.01649715	     -0.26955230	      0.68954708	    338.82577796	    -16.06563356	    365.31760639	     52.54706201	     72.01706487	   -212.67173489	   -145.92044710	   -184.44792481	     94.85438688	     79.58022768
      4.32083330	     -9.55716291	     -0.96530850	      3.64826157	      0.45365311	      1.28196715	      0.00422786	      9.47556407	     -4.15474529	    -27.96592761	      2.41871156	      0.04221448	    -39.69878627	     -4.22960594	     -7.49999987	     12.82694846	    -10.52705050	    -26.19938122	      4.23606410	      0.07393327	    -35.28844276	     -4.20537501	     -7.49999987	     -5.07643974	     -0.56416401	      0.85079219	    339.31878249	    -15.80089920	    365.44846406	     52.03943210	     72.12055312	   -212.56650917	   -146.30342386	   -184.40425872	     94.59206189	     80.92044434
      4.32500000	     -9.33093709	     -0.94118722	      3.69396581	      0.45531416	      1.26610897	      0.00299471	      9.14662371	     -4.16721948	    -28.09401819	      2.44232356	      0.04262659	    -39.53666675	     -4.76864273	     -7.49999987	     12.54749959	    -10.60488137	    -25.95406440	      4.43575416	      0.07741851	    -34.96461631	     -4.10659124	     -7.49999987	     -5.04080558	     -0.53517343	      1.24193990	    338.85686544	    -15.50239976	    364.66992764	     52.34752853	     70.87695576	   -211.92738616	   -146.21582146	   -183.24920469	     94.27056366	     78.79397971
      4.32916670	     -9.40483522	     -0.91584013	      3.87963279	      0.45659648	      1.26213350	      0.00257837	      9.04583583	     -4.23369776	    -28.93304269	      2.38590864	      0.04164196	    -39.74408568	     -4.88969540	     -7.49999987	     12.46937459	    -10.45180816	    -26.05776633	      4.38711203	      0.07656955	    -35.09592681	     -3.80033053	     -7.49999987	     -4.73435513	     -0.60490050	      1.42769604	    338.76316703	    -15.25608551	    364.39655446	     51.89926698	     71.86717723	   -211.43204785	   -146.42060735	   -182.59644622	     93.73842927	     79.75448056
      4.33333330	     -9.35302733	     -1.01201054	      3.67167026	      0.45408663	      1.25130552	      0.00202155	      9.04680455	     -4.10864196	    -29.61860272	      2.43780003	      0.04254764	    -40.23096555	     -5.27922614	     -7.49999987	     12.38454432	    -10.60783881	    -26.03790908	      4.52427927	      0.07896357	    -34.82290464	     -3.62893327	     -7.49999987	     -4.78107947	     -0.32106502	      2.07382653	    338.54476068	    -15.17684186	    363.78361911	     52.02092953	     70.67873951	   -210.54979574	   -146.76795827	   -181.43827209	     92.95531436	     77.84675649
      4.33750000	     -9.21016366	     -1.11065549	      3.51866628	      0.45521299	      1.23935248	      0.00323214	      8.85808637	     -3.95909245	    -30.09591867	      2.58400353	      0.04509937	    -40.39616783	     -5.61867051	     -7.49999987	     12.11818079	    -10.80973296	    -26.31243984	      4.60223434	      0.08032414	    -34.92758034	     -3.87555869	     -7.49999987	     -4.75997211	     -0.14571603	      2.38292022	    338.53534354	    -15.15425331	    363.52539678	     52.00428022	     70.05258385	   -210.05898971	   -147.13186890	   -180.69344940	     92.27292680	     76.80861647
